<svg version="1.0" preserveAspectRatio="xMidYMid meet" viewBox="0 49.3499988156 377.25 262.4999937" zoomAndPan="magnify" xmlns:xlink="http://www.w3.org/1999/xlink" xmlns="http://www.w3.org/2000/svg" style="max-height: 500px" width="377.25" height="262.4999937"><defs><g/><clipPath id="557c8e686b"><path clip-rule="nonzero" d="M 2 54.546875 L 370.578125 54.546875 L 370.578125 308.101562 L 2 308.101562 Z M 2 54.546875"/></clipPath></defs><g clip-path="url(#557c8e686b)"><path fill-rule="nonzero" fill-opacity="1" d="M 795.578125 294.265625 C 799.527344 294.265625 802.726562 297.46875 802.726562 301.414062 C 802.726562 305.363281 799.527344 308.566406 795.578125 308.566406 L 61.261719 308.566406 C 54.195312 308.566406 47.761719 305.675781 43.113281 301.023438 C 38.460938 296.371094 35.570312 289.945312 35.570312 282.875 L 35.570312 192.535156 L 22.828125 192.535156 C 17.851562 192.535156 13.753906 191.230469 10.554688 189.066406 C 7.015625 186.675781 4.667969 183.289062 3.492188 179.445312 L 3.480469 179.449219 C 2.390625 175.878906 2.355469 171.945312 3.335938 168.128906 C 4.503906 163.574219 7.132812 159.132812 11.121094 155.695312 L 120.601562 61.316406 C 125.847656 56.804688 132.640625 54.546875 139.363281 54.546875 C 146.085938 54.546875 152.878906 56.804688 158.117188 61.316406 L 231.695312 124.957031 C 234.671875 127.53125 234.996094 132.035156 232.421875 135.011719 C 229.847656 137.992188 225.34375 138.316406 222.367188 135.742188 L 148.789062 72.101562 C 146.273438 69.9375 142.851562 68.851562 139.363281 68.851562 C 135.875 68.851562 132.449219 69.9375 129.929688 72.101562 L 20.449219 166.480469 C 18.726562 167.964844 17.609375 169.808594 17.136719 171.648438 C 16.804688 172.9375 16.796875 174.195312 17.117188 175.253906 L 17.109375 175.257812 L 17.117188 175.285156 C 17.351562 176.046875 17.828125 176.734375 18.546875 177.21875 C 19.476562 177.851562 20.890625 178.230469 22.828125 178.230469 L 42.71875 178.230469 C 46.667969 178.230469 49.871094 181.433594 49.871094 185.382812 L 49.871094 282.875 C 49.871094 285.996094 51.15625 288.847656 53.222656 290.914062 C 55.289062 292.980469 58.136719 294.265625 61.261719 294.265625 Z M 795.578125 294.265625" fill="#00bf63"/></g><g fill-opacity="1" fill="#ffffff"><g transform="translate(142.37604, 266.899234)"><g><path d="M 12.390625 0 L 12.390625 -111.078125 L 78.1875 -111.078125 C 91.238281 -111.078125 101.304688 -107.707031 108.390625 -100.96875 C 115.484375 -94.238281 119.03125 -85.007812 119.03125 -73.28125 C 119.03125 -61.550781 115.484375 -52.21875 108.390625 -45.28125 C 101.304688 -38.351562 91.238281 -34.890625 78.1875 -34.890625 L 40.234375 -34.890625 L 40.234375 0 Z M 40.234375 -88.28125 L 40.234375 -57.6875 L 65.796875 -57.6875 C 74.460938 -57.6875 80.859375 -58.675781 84.984375 -60.65625 C 89.117188 -62.644531 91.1875 -66.703125 91.1875 -72.828125 C 91.1875 -79.148438 89.320312 -83.304688 85.59375 -85.296875 C 81.875 -87.285156 75.882812 -88.28125 67.625 -88.28125 Z M 40.234375 -88.28125"/></g></g></g><g fill-opacity="1" fill="#ffffff"><g transform="translate(260.6405, 266.899234)"><g><path d="M 12.390625 -111.078125 L 107.25 -111.078125 L 107.25 -88.28125 L 40.234375 -88.28125 L 40.234375 -67.3125 L 101.4375 -67.3125 L 101.4375 -44.515625 L 40.234375 -44.515625 L 40.234375 0 L 12.390625 0 Z M 12.390625 -111.078125"/></g></g></g></svg>