<svg xmlns="http://www.w3.org/2000/svg" xmlns:xlink="http://www.w3.org/1999/xlink" zoomAndPan="magnify" preserveAspectRatio="xMidYMid meet" version="1.0" viewBox="0 134.52 369.47 105.95"><defs><g/><clipPath id="c804e27978"><path d="M 0 134.519531 L 153.75 134.519531 L 153.75 240.269531 L 0 240.269531 Z M 0 134.519531 " clip-rule="nonzero"/></clipPath></defs><g clip-path="url(#c804e27978)"><path fill="#00bf63" d="M 331.003906 234.5 C 332.652344 234.5 333.988281 235.835938 333.988281 237.484375 C 333.988281 239.128906 332.652344 240.464844 331.003906 240.464844 L 24.742188 240.464844 C 21.792969 240.464844 19.113281 239.261719 17.171875 237.320312 C 15.234375 235.378906 14.027344 232.699219 14.027344 229.75 L 14.027344 192.074219 L 8.710938 192.074219 C 6.636719 192.074219 4.929688 191.527344 3.59375 190.625 C 2.117188 189.628906 1.140625 188.214844 0.648438 186.613281 L 0.644531 186.613281 C 0.1875 185.125 0.175781 183.484375 0.585938 181.894531 C 1.070312 179.992188 2.167969 178.140625 3.832031 176.707031 L 49.492188 137.34375 C 51.679688 135.460938 54.511719 134.519531 57.316406 134.519531 C 60.121094 134.519531 62.953125 135.460938 65.136719 137.34375 L 95.824219 163.886719 C 97.066406 164.960938 97.203125 166.839844 96.128906 168.082031 C 95.054688 169.324219 93.175781 169.460938 91.933594 168.386719 L 61.246094 141.84375 C 60.199219 140.9375 58.773438 140.488281 57.316406 140.488281 C 55.863281 140.488281 54.433594 140.9375 53.382812 141.84375 L 7.722656 181.207031 C 7.003906 181.824219 6.535156 182.59375 6.339844 183.359375 C 6.203125 183.898438 6.195312 184.421875 6.332031 184.863281 L 6.328125 184.867188 L 6.332031 184.875 C 6.429688 185.195312 6.628906 185.480469 6.925781 185.683594 C 7.316406 185.949219 7.90625 186.105469 8.710938 186.105469 L 17.007812 186.105469 C 18.65625 186.105469 19.992188 187.441406 19.992188 189.089844 L 19.992188 229.75 C 19.992188 231.050781 20.527344 232.242188 21.390625 233.101562 C 22.25 233.964844 23.4375 234.5 24.742188 234.5 Z M 331.003906 234.5 " fill-opacity="1" fill-rule="nonzero"/></g><g fill="#ffffff" fill-opacity="1"><g transform="translate(37.500002, 214.175036)"><g><path d="M 4.0625 0 L 4.0625 -36.46875 L 25.671875 -36.46875 C 29.953125 -36.46875 33.253906 -35.363281 35.578125 -33.15625 C 37.910156 -30.945312 39.078125 -27.914062 39.078125 -24.0625 C 39.078125 -20.207031 37.910156 -17.140625 35.578125 -14.859375 C 33.253906 -12.585938 29.953125 -11.453125 25.671875 -11.453125 L 13.21875 -11.453125 L 13.21875 0 Z M 13.21875 -28.984375 L 13.21875 -18.9375 L 21.59375 -18.9375 C 24.445312 -18.9375 26.550781 -19.257812 27.90625 -19.90625 C 29.257812 -20.5625 29.9375 -21.894531 29.9375 -23.90625 C 29.9375 -25.988281 29.320312 -27.351562 28.09375 -28 C 26.875 -28.65625 24.910156 -28.984375 22.203125 -28.984375 Z M 13.21875 -28.984375 "/></g></g></g><g fill="#ffffff" fill-opacity="1"><g transform="translate(76.327946, 214.175036)"><g><path d="M 11.859375 -27.171875 L 11.859375 -23.609375 C 14.367188 -26.617188 17.113281 -28.125 20.09375 -28.125 C 20.394531 -28.125 20.78125 -28.109375 21.25 -28.078125 C 21.71875 -28.046875 22.117188 -28 22.453125 -27.9375 L 22.453125 -20.796875 C 22.222656 -20.828125 21.835938 -20.847656 21.296875 -20.859375 C 20.765625 -20.878906 20.265625 -20.890625 19.796875 -20.890625 C 17.347656 -20.890625 15.410156 -20.117188 13.984375 -18.578125 C 12.566406 -17.046875 11.859375 -14.90625 11.859375 -12.15625 L 11.859375 0 L 3.421875 0 L 3.421875 -27.171875 Z M 11.859375 -27.171875 "/></g></g></g><g fill="#ffffff" fill-opacity="1"><g transform="translate(96.922218, 214.175036)"><g><path d="M 1.8125 -13.609375 C 1.8125 -16.585938 2.492188 -19.15625 3.859375 -21.3125 C 5.234375 -23.476562 7.207031 -25.15625 9.78125 -26.34375 C 12.363281 -27.53125 15.445312 -28.125 19.03125 -28.125 C 22.65625 -28.125 25.75 -27.53125 28.3125 -26.34375 C 30.875 -25.15625 32.832031 -23.476562 34.1875 -21.3125 C 35.539062 -19.15625 36.21875 -16.585938 36.21875 -13.609375 C 36.21875 -10.628906 35.53125 -8.050781 34.15625 -5.875 C 32.78125 -3.695312 30.8125 -2.015625 28.25 -0.828125 C 25.6875 0.359375 22.613281 0.953125 19.03125 0.953125 C 15.488281 0.953125 12.425781 0.359375 9.84375 -0.828125 C 7.269531 -2.015625 5.285156 -3.695312 3.890625 -5.875 C 2.503906 -8.050781 1.8125 -10.628906 1.8125 -13.609375 Z M 10.953125 -13.5625 C 10.953125 -11.1875 11.6875 -9.253906 13.15625 -7.765625 C 14.632812 -6.273438 16.59375 -5.53125 19.03125 -5.53125 C 21.445312 -5.53125 23.390625 -6.28125 24.859375 -7.78125 C 26.335938 -9.289062 27.078125 -11.234375 27.078125 -13.609375 C 27.078125 -15.992188 26.335938 -17.929688 24.859375 -19.421875 C 23.390625 -20.910156 21.445312 -21.65625 19.03125 -21.65625 C 16.59375 -21.65625 14.632812 -20.898438 13.15625 -19.390625 C 11.6875 -17.878906 10.953125 -15.9375 10.953125 -13.5625 Z M 10.953125 -13.5625 "/></g></g></g><g fill="#ffffff" fill-opacity="1"><g transform="translate(132.585645, 214.175036)"><g><path d="M 11.859375 -27.171875 L 11.859375 -24.515625 C 12.929688 -25.617188 14.257812 -26.492188 15.84375 -27.140625 C 17.4375 -27.796875 19.320312 -28.125 21.5 -28.125 C 24.550781 -28.125 27.238281 -27.503906 29.5625 -26.265625 C 31.882812 -25.023438 33.695312 -23.304688 35 -21.109375 C 36.3125 -18.921875 36.96875 -16.421875 36.96875 -13.609375 C 36.96875 -10.765625 36.304688 -8.242188 34.984375 -6.046875 C 33.660156 -3.859375 31.828125 -2.144531 29.484375 -0.90625 C 27.140625 0.332031 24.425781 0.953125 21.34375 0.953125 C 19.332031 0.953125 17.539062 0.628906 15.96875 -0.015625 C 14.394531 -0.671875 13.023438 -1.601562 11.859375 -2.8125 L 11.859375 9.59375 L 3.421875 9.59375 L 3.421875 -27.171875 Z M 19.890625 -21.65625 C 17.441406 -21.65625 15.488281 -20.898438 14.03125 -19.390625 C 12.582031 -17.878906 11.859375 -15.9375 11.859375 -13.5625 C 11.859375 -11.21875 12.578125 -9.289062 14.015625 -7.78125 C 15.453125 -6.28125 17.394531 -5.53125 19.84375 -5.53125 C 22.289062 -5.53125 24.234375 -6.28125 25.671875 -7.78125 C 27.109375 -9.289062 27.828125 -11.234375 27.828125 -13.609375 C 27.828125 -15.992188 27.109375 -17.929688 25.671875 -19.421875 C 24.234375 -20.910156 22.304688 -21.65625 19.890625 -21.65625 Z M 19.890625 -21.65625 "/></g></g></g><g fill="#ffffff" fill-opacity="1"><g transform="translate(169.002529, 214.175036)"><g><path d="M 34.109375 -8.84375 C 32.972656 -5.757812 31.039062 -3.351562 28.3125 -1.625 C 25.582031 0.09375 22.207031 0.953125 18.1875 0.953125 C 14.832031 0.953125 11.925781 0.359375 9.46875 -0.828125 C 7.007812 -2.015625 5.117188 -3.695312 3.796875 -5.875 C 2.472656 -8.050781 1.8125 -10.628906 1.8125 -13.609375 C 1.8125 -16.585938 2.460938 -19.15625 3.765625 -21.3125 C 5.078125 -23.476562 6.960938 -25.15625 9.421875 -26.34375 C 11.878906 -27.53125 14.800781 -28.125 18.1875 -28.125 C 23.445312 -28.125 27.488281 -26.773438 30.3125 -24.078125 C 33.144531 -21.390625 34.5625 -17.550781 34.5625 -12.5625 L 34.5625 -11.40625 L 11.296875 -11.40625 C 11.296875 -9.425781 11.941406 -7.84375 13.234375 -6.65625 C 14.523438 -5.46875 16.175781 -4.875 18.1875 -4.875 C 19.789062 -4.875 21.171875 -5.222656 22.328125 -5.921875 C 23.484375 -6.628906 24.3125 -7.601562 24.8125 -8.84375 Z M 11.546875 -17.03125 L 25.21875 -17.03125 C 25.082031 -18.707031 24.398438 -20.035156 23.171875 -21.015625 C 21.953125 -22.003906 20.359375 -22.5 18.390625 -22.5 C 16.441406 -22.5 14.859375 -22.003906 13.640625 -21.015625 C 12.421875 -20.035156 11.722656 -18.707031 11.546875 -17.03125 Z M 11.546875 -17.03125 "/></g></g></g><g fill="#ffffff" fill-opacity="1"><g transform="translate(203.008341, 214.175036)"><g><path d="M 11.859375 -27.171875 L 11.859375 -23.609375 C 14.367188 -26.617188 17.113281 -28.125 20.09375 -28.125 C 20.394531 -28.125 20.78125 -28.109375 21.25 -28.078125 C 21.71875 -28.046875 22.117188 -28 22.453125 -27.9375 L 22.453125 -20.796875 C 22.222656 -20.828125 21.835938 -20.847656 21.296875 -20.859375 C 20.765625 -20.878906 20.265625 -20.890625 19.796875 -20.890625 C 17.347656 -20.890625 15.410156 -20.117188 13.984375 -18.578125 C 12.566406 -17.046875 11.859375 -14.90625 11.859375 -12.15625 L 11.859375 0 L 3.421875 0 L 3.421875 -27.171875 Z M 11.859375 -27.171875 "/></g></g></g><g fill="#ffffff" fill-opacity="1"><g transform="translate(223.60261, 214.175036)"><g><path d="M 5.578125 -34.40625 L 14.015625 -34.40625 L 14.015625 -27.171875 L 20.34375 -27.171875 L 20.34375 -20.703125 L 14.015625 -20.703125 L 14.015625 -9.296875 C 14.015625 -8.253906 14.054688 -7.457031 14.140625 -6.90625 C 14.222656 -6.351562 14.460938 -5.984375 14.859375 -5.796875 C 15.265625 -5.617188 15.9375 -5.53125 16.875 -5.53125 L 20.34375 -5.53125 L 20.34375 0.953125 L 14.625 0.953125 C 11.539062 0.953125 9.257812 0.46875 7.78125 -0.5 C 6.3125 -1.46875 5.578125 -3.175781 5.578125 -5.625 L 5.578125 -20.703125 L 1.609375 -20.703125 L 1.609375 -27.171875 L 5.578125 -27.171875 Z M 5.578125 -34.40625 "/></g></g></g><g fill="#ffffff" fill-opacity="1"><g transform="translate(242.489038, 214.175036)"><g><path d="M -0.5 -27.171875 L 8.890625 -27.171875 L 16.171875 -9.6875 L 24.0625 -27.171875 L 33.359375 -27.171875 L 18.078125 3.96875 C 17.378906 5.4375 16.644531 6.582031 15.875 7.40625 C 15.101562 8.226562 14.207031 8.796875 13.1875 9.109375 C 12.164062 9.429688 10.914062 9.59375 9.4375 9.59375 L 3.609375 9.59375 L 3.609375 3.109375 L 8.59375 3.109375 C 9.664062 3.109375 10.453125 2.78125 10.953125 2.125 C 11.453125 1.476562 11.703125 0.753906 11.703125 -0.046875 C 11.703125 -0.378906 11.664062 -0.726562 11.59375 -1.09375 C 11.53125 -1.46875 11.367188 -1.925781 11.109375 -2.46875 Z M -0.5 -27.171875 "/></g></g></g><g fill="#ffffff" fill-opacity="1"><g transform="translate(272.978722, 214.175036)"><g><path d="M 4.0625 -36.46875 L 35.21875 -36.46875 L 35.21875 -28.984375 L 13.21875 -28.984375 L 13.21875 -22.109375 L 33.3125 -22.109375 L 33.3125 -14.625 L 13.21875 -14.625 L 13.21875 0 L 4.0625 0 Z M 4.0625 -36.46875 "/></g></g></g><g fill="#ffffff" fill-opacity="1"><g transform="translate(307.085012, 214.175036)"><g><path d="M 12.359375 -27.171875 L 12.359375 0 L 3.921875 0 L 3.921875 -27.171875 Z M 3.921875 -36.421875 L 12.359375 -36.421875 L 12.359375 -29.9375 L 3.921875 -29.9375 Z M 3.921875 -36.421875 "/></g></g></g><g fill="#ffffff" fill-opacity="1"><g transform="translate(320.998645, 214.175036)"><g><path d="M 12.359375 -36.46875 L 12.359375 0 L 3.921875 0 L 3.921875 -36.46875 Z M 12.359375 -36.46875 "/></g></g></g><g fill="#ffffff" fill-opacity="1"><g transform="translate(334.912279, 214.175036)"><g><path d="M 34.109375 -8.84375 C 32.972656 -5.757812 31.039062 -3.351562 28.3125 -1.625 C 25.582031 0.09375 22.207031 0.953125 18.1875 0.953125 C 14.832031 0.953125 11.925781 0.359375 9.46875 -0.828125 C 7.007812 -2.015625 5.117188 -3.695312 3.796875 -5.875 C 2.472656 -8.050781 1.8125 -10.628906 1.8125 -13.609375 C 1.8125 -16.585938 2.460938 -19.15625 3.765625 -21.3125 C 5.078125 -23.476562 6.960938 -25.15625 9.421875 -26.34375 C 11.878906 -27.53125 14.800781 -28.125 18.1875 -28.125 C 23.445312 -28.125 27.488281 -26.773438 30.3125 -24.078125 C 33.144531 -21.390625 34.5625 -17.550781 34.5625 -12.5625 L 34.5625 -11.40625 L 11.296875 -11.40625 C 11.296875 -9.425781 11.941406 -7.84375 13.234375 -6.65625 C 14.523438 -5.46875 16.175781 -4.875 18.1875 -4.875 C 19.789062 -4.875 21.171875 -5.222656 22.328125 -5.921875 C 23.484375 -6.628906 24.3125 -7.601562 24.8125 -8.84375 Z M 11.546875 -17.03125 L 25.21875 -17.03125 C 25.082031 -18.707031 24.398438 -20.035156 23.171875 -21.015625 C 21.953125 -22.003906 20.359375 -22.5 18.390625 -22.5 C 16.441406 -22.5 14.859375 -22.003906 13.640625 -21.015625 C 12.421875 -20.035156 11.722656 -18.707031 11.546875 -17.03125 Z M 11.546875 -17.03125 "/></g></g></g></svg>