<svg xmlns="http://www.w3.org/2000/svg" xmlns:xlink="http://www.w3.org/1999/xlink" zoomAndPan="magnify" preserveAspectRatio="xMidYMid meet" version="1.0" viewBox="5.53 162.92 366.36 62.63"><defs><g/><clipPath id="c3e3951d44"><path d="M 5 0.71875 L 70 0.71875 L 70 51 L 5 51 Z M 5 0.71875 " clip-rule="nonzero"/></clipPath><clipPath id="f60ab19171"><path d="M 122 12 L 169 12 L 169 63.839844 L 122 63.839844 Z M 122 12 " clip-rule="nonzero"/></clipPath><clipPath id="e0153d213b"><path d="M 263 0.71875 L 275 0.71875 L 275 51 L 263 51 Z M 263 0.71875 " clip-rule="nonzero"/></clipPath><clipPath id="934f00e7ff"><rect x="0" width="373" y="0" height="64"/></clipPath></defs><g transform="matrix(1, 0, 0, 1, 0, 162)"><g clip-path="url(#934f00e7ff)"><g clip-path="url(#c3e3951d44)"><g fill="#00bf63" fill-opacity="1"><g transform="translate(0.0000045, 50.498663)"><g><path d="M 5.53125 -49.578125 L 21.578125 -49.578125 L 37.5625 -14.0625 L 53.953125 -49.578125 L 69.875 -49.578125 L 69.875 0 L 57.921875 0 L 57.921875 -33.125 L 42.546875 0 L 32.234375 0 L 17.484375 -33.671875 L 17.484375 0 L 5.53125 0 Z M 5.53125 -49.578125 "/></g></g></g></g><g fill="#00bf63" fill-opacity="1"><g transform="translate(72.194373, 50.498663)"><g><path d="M 18.296875 -24.71875 L 6.421875 -24.71875 C 6.421875 -29.09375 8.195312 -32.441406 11.75 -34.765625 C 15.300781 -37.085938 20.515625 -38.25 27.390625 -38.25 C 29.890625 -38.25 32.273438 -38.066406 34.546875 -37.703125 C 36.828125 -37.335938 38.867188 -36.65625 40.671875 -35.65625 C 42.472656 -34.65625 43.882812 -33.242188 44.90625 -31.421875 C 45.925781 -29.597656 46.4375 -27.226562 46.4375 -24.3125 L 46.4375 -5.9375 C 46.4375 -4.664062 46.550781 -3.617188 46.78125 -2.796875 C 47.007812 -1.984375 47.46875 -1.320312 48.15625 -0.8125 L 48.15625 0 L 35.515625 0 L 34.96875 -4.03125 C 32.875 -2.164062 30.570312 -0.8125 28.0625 0.03125 C 25.5625 0.875 22.71875 1.296875 19.53125 1.296875 C 14.289062 1.296875 10.238281 0.171875 7.375 -2.078125 C 4.507812 -4.335938 3.078125 -7.285156 3.078125 -10.921875 C 3.078125 -14.753906 4.53125 -17.476562 7.4375 -19.09375 C 10.351562 -20.707031 14.75 -21.742188 20.625 -22.203125 C 23.8125 -22.472656 26.484375 -22.6875 28.640625 -22.84375 C 30.804688 -23 32.445312 -23.347656 33.5625 -23.890625 C 34.675781 -24.441406 35.234375 -25.398438 35.234375 -26.765625 C 35.234375 -29.546875 32.390625 -30.9375 26.703125 -30.9375 C 23.921875 -30.9375 21.820312 -30.445312 20.40625 -29.46875 C 19 -28.488281 18.296875 -26.90625 18.296875 -24.71875 Z M 35.234375 -17.828125 C 34.054688 -17.191406 32.679688 -16.769531 31.109375 -16.5625 C 29.535156 -16.351562 27.796875 -16.132812 25.890625 -15.90625 C 22.648438 -15.59375 20.1875 -15.171875 18.5 -14.640625 C 16.820312 -14.117188 15.984375 -12.972656 15.984375 -11.203125 C 15.984375 -9.785156 16.539062 -8.644531 17.65625 -7.78125 C 18.769531 -6.914062 20.285156 -6.484375 22.203125 -6.484375 C 26.109375 -6.484375 29.253906 -7.425781 31.640625 -9.3125 C 34.035156 -11.207031 35.234375 -13.613281 35.234375 -16.53125 Z M 35.234375 -17.828125 "/></g></g></g><g clip-path="url(#f60ab19171)"><g fill="#00bf63" fill-opacity="1"><g transform="translate(120.21008, 50.498663)"><g><path d="M 36.609375 -36.953125 L 48.078125 -36.953125 L 48.078125 -3.6875 C 48.078125 2.050781 46.050781 6.273438 42 8.984375 C 37.945312 11.691406 32.414062 13.046875 25.40625 13.046875 C 18.894531 13.046875 13.988281 12 10.6875 9.90625 C 7.382812 7.8125 5.734375 4.578125 5.734375 0.203125 L 17.140625 0.203125 C 17.140625 3.296875 19.914062 4.84375 25.46875 4.84375 C 29.570312 4.84375 32.453125 4.238281 34.109375 3.03125 C 35.773438 1.832031 36.609375 -0.359375 36.609375 -3.546875 L 36.609375 -6.078125 C 35.054688 -4.523438 33.207031 -3.382812 31.0625 -2.65625 C 28.925781 -1.9375 26.492188 -1.578125 23.765625 -1.578125 C 19.535156 -1.578125 15.8125 -2.335938 12.59375 -3.859375 C 9.382812 -5.378906 6.890625 -7.515625 5.109375 -10.265625 C 3.335938 -13.023438 2.453125 -16.207031 2.453125 -19.8125 C 2.453125 -23.363281 3.335938 -26.523438 5.109375 -29.296875 C 6.890625 -32.078125 9.363281 -34.265625 12.53125 -35.859375 C 15.695312 -37.453125 19.375 -38.25 23.5625 -38.25 C 29.070312 -38.25 33.421875 -36.722656 36.609375 -33.671875 Z M 36.609375 -19.8125 C 36.609375 -22.769531 35.640625 -25.191406 33.703125 -27.078125 C 31.765625 -28.960938 29.113281 -29.90625 25.75 -29.90625 C 22.425781 -29.90625 19.785156 -28.972656 17.828125 -27.109375 C 15.867188 -25.242188 14.890625 -22.8125 14.890625 -19.8125 C 14.890625 -16.757812 15.867188 -14.34375 17.828125 -12.5625 C 19.785156 -10.789062 22.425781 -9.90625 25.75 -9.90625 C 29.113281 -9.90625 31.765625 -10.800781 33.703125 -12.59375 C 35.640625 -14.394531 36.609375 -16.800781 36.609375 -19.8125 Z M 36.609375 -19.8125 "/></g></g></g></g><g fill="#00bf63" fill-opacity="1"><g transform="translate(169.728429, 50.498663)"><g><path d="M 18.296875 -24.71875 L 6.421875 -24.71875 C 6.421875 -29.09375 8.195312 -32.441406 11.75 -34.765625 C 15.300781 -37.085938 20.515625 -38.25 27.390625 -38.25 C 29.890625 -38.25 32.273438 -38.066406 34.546875 -37.703125 C 36.828125 -37.335938 38.867188 -36.65625 40.671875 -35.65625 C 42.472656 -34.65625 43.882812 -33.242188 44.90625 -31.421875 C 45.925781 -29.597656 46.4375 -27.226562 46.4375 -24.3125 L 46.4375 -5.9375 C 46.4375 -4.664062 46.550781 -3.617188 46.78125 -2.796875 C 47.007812 -1.984375 47.46875 -1.320312 48.15625 -0.8125 L 48.15625 0 L 35.515625 0 L 34.96875 -4.03125 C 32.875 -2.164062 30.570312 -0.8125 28.0625 0.03125 C 25.5625 0.875 22.71875 1.296875 19.53125 1.296875 C 14.289062 1.296875 10.238281 0.171875 7.375 -2.078125 C 4.507812 -4.335938 3.078125 -7.285156 3.078125 -10.921875 C 3.078125 -14.753906 4.53125 -17.476562 7.4375 -19.09375 C 10.351562 -20.707031 14.75 -21.742188 20.625 -22.203125 C 23.8125 -22.472656 26.484375 -22.6875 28.640625 -22.84375 C 30.804688 -23 32.445312 -23.347656 33.5625 -23.890625 C 34.675781 -24.441406 35.234375 -25.398438 35.234375 -26.765625 C 35.234375 -29.546875 32.390625 -30.9375 26.703125 -30.9375 C 23.921875 -30.9375 21.820312 -30.445312 20.40625 -29.46875 C 19 -28.488281 18.296875 -26.90625 18.296875 -24.71875 Z M 35.234375 -17.828125 C 34.054688 -17.191406 32.679688 -16.769531 31.109375 -16.5625 C 29.535156 -16.351562 27.796875 -16.132812 25.890625 -15.90625 C 22.648438 -15.59375 20.1875 -15.171875 18.5 -14.640625 C 16.820312 -14.117188 15.984375 -12.972656 15.984375 -11.203125 C 15.984375 -9.785156 16.539062 -8.644531 17.65625 -7.78125 C 18.769531 -6.914062 20.285156 -6.484375 22.203125 -6.484375 C 26.109375 -6.484375 29.253906 -7.425781 31.640625 -9.3125 C 34.035156 -11.207031 35.234375 -13.613281 35.234375 -16.53125 Z M 35.234375 -17.828125 "/></g></g></g><g fill="#00bf63" fill-opacity="1"><g transform="translate(217.744116, 50.498663)"><g><path d="M 3.828125 -36.953125 L 40.703125 -36.953125 L 40.703125 -28.140625 L 17.140625 -8.8125 L 41.453125 -8.8125 L 41.453125 0 L 2.1875 0 L 2.1875 -8.875 L 25.34375 -28.140625 L 3.828125 -28.140625 Z M 3.828125 -36.953125 "/></g></g></g><g clip-path="url(#e0153d213b)"><g fill="#00bf63" fill-opacity="1"><g transform="translate(258.178379, 50.498663)"><g><path d="M 16.796875 -36.953125 L 16.796875 0 L 5.328125 0 L 5.328125 -36.953125 Z M 5.328125 -49.515625 L 16.796875 -49.515625 L 16.796875 -40.703125 L 5.328125 -40.703125 Z M 5.328125 -49.515625 "/></g></g></g></g><g fill="#00bf63" fill-opacity="1"><g transform="translate(277.097746, 50.498663)"><g><path d="M 16.125 -36.953125 L 16.125 -31.765625 C 20.125 -36.085938 24.925781 -38.25 30.53125 -38.25 C 34.675781 -38.25 37.882812 -37.550781 40.15625 -36.15625 C 42.4375 -34.769531 44.039062 -32.78125 44.96875 -30.1875 C 45.90625 -27.59375 46.375 -24.453125 46.375 -20.765625 L 46.375 0 L 34.90625 0 L 34.90625 -18.640625 C 34.90625 -22.378906 34.378906 -25.113281 33.328125 -26.84375 C 32.285156 -28.570312 30.125 -29.4375 26.84375 -29.4375 C 23.5625 -29.4375 20.953125 -28.523438 19.015625 -26.703125 C 17.085938 -24.878906 16.125 -22.332031 16.125 -19.0625 L 16.125 0 L 4.640625 0 L 4.640625 -36.953125 Z M 16.125 -36.953125 "/></g></g></g><g fill="#00bf63" fill-opacity="1"><g transform="translate(324.908538, 50.498663)"><g><path d="M 46.375 -12.015625 C 44.820312 -7.828125 42.191406 -4.5625 38.484375 -2.21875 C 34.773438 0.125 30.1875 1.296875 24.71875 1.296875 C 20.164062 1.296875 16.21875 0.488281 12.875 -1.125 C 9.53125 -2.738281 6.957031 -5.023438 5.15625 -7.984375 C 3.351562 -10.953125 2.453125 -14.460938 2.453125 -18.515625 C 2.453125 -22.566406 3.335938 -26.054688 5.109375 -28.984375 C 6.890625 -31.921875 9.453125 -34.195312 12.796875 -35.8125 C 16.148438 -37.4375 20.125 -38.25 24.71875 -38.25 C 31.875 -38.25 37.375 -36.414062 41.21875 -32.75 C 45.0625 -29.082031 46.984375 -23.859375 46.984375 -17.078125 L 46.984375 -15.5 L 15.359375 -15.5 C 15.359375 -12.8125 16.234375 -10.660156 17.984375 -9.046875 C 19.742188 -7.429688 21.988281 -6.625 24.71875 -6.625 C 26.90625 -6.625 28.785156 -7.101562 30.359375 -8.0625 C 31.929688 -9.019531 33.054688 -10.335938 33.734375 -12.015625 Z M 15.703125 -23.15625 L 34.28125 -23.15625 C 34.101562 -25.425781 33.179688 -27.234375 31.515625 -28.578125 C 29.859375 -29.921875 27.6875 -30.59375 25 -30.59375 C 22.351562 -30.59375 20.195312 -29.921875 18.53125 -28.578125 C 16.875 -27.234375 15.929688 -25.425781 15.703125 -23.15625 Z M 15.703125 -23.15625 "/></g></g></g></g></g></svg>