<svg xmlns="http://www.w3.org/2000/svg" xmlns:xlink="http://www.w3.org/1999/xlink" zoomAndPan="magnify" preserveAspectRatio="xMidYMid meet" version="1.0" viewBox="4.56 160.28 368.27 51.75"><defs><g/><clipPath id="762640e77b"><rect x="0" width="374" y="0" height="55"/></clipPath></defs><g transform="matrix(1, 0, 0, 1, 0, 159)"><g clip-path="url(#762640e77b)"><g fill="#ffffff" fill-opacity="1"><g transform="translate(0.0000045, 42.251972)"><g><path d="M 4.5625 0 L 4.5625 -40.96875 L 28.828125 -40.96875 C 33.640625 -40.96875 37.351562 -39.722656 39.96875 -37.234375 C 42.582031 -34.753906 43.890625 -31.351562 43.890625 -27.03125 C 43.890625 -22.695312 42.582031 -19.25 39.96875 -16.6875 C 37.351562 -14.132812 33.640625 -12.859375 28.828125 -12.859375 L 14.84375 -12.859375 L 14.84375 0 Z M 14.84375 -32.5625 L 14.84375 -21.265625 L 24.265625 -21.265625 C 27.460938 -21.265625 29.820312 -21.628906 31.34375 -22.359375 C 32.863281 -23.097656 33.625 -24.597656 33.625 -26.859375 C 33.625 -29.191406 32.9375 -30.722656 31.5625 -31.453125 C 30.195312 -32.191406 27.988281 -32.5625 24.9375 -32.5625 Z M 14.84375 -32.5625 "/></g></g></g><g fill="#ffffff" fill-opacity="1"><g transform="translate(43.606827, 42.251972)"><g><path d="M 13.3125 -30.53125 L 13.3125 -26.515625 C 16.132812 -29.898438 19.21875 -31.59375 22.5625 -31.59375 C 22.90625 -31.59375 23.335938 -31.570312 23.859375 -31.53125 C 24.390625 -31.5 24.84375 -31.445312 25.21875 -31.375 L 25.21875 -23.359375 C 24.957031 -23.398438 24.523438 -23.425781 23.921875 -23.4375 C 23.316406 -23.457031 22.753906 -23.46875 22.234375 -23.46875 C 19.484375 -23.46875 17.304688 -22.601562 15.703125 -20.875 C 14.109375 -19.144531 13.3125 -16.738281 13.3125 -13.65625 L 13.3125 0 L 3.84375 0 L 3.84375 -30.53125 Z M 13.3125 -30.53125 "/></g></g></g><g fill="#ffffff" fill-opacity="1"><g transform="translate(66.735812, 42.251972)"><g><path d="M 2.03125 -15.296875 C 2.03125 -18.640625 2.800781 -21.523438 4.34375 -23.953125 C 5.882812 -26.378906 8.101562 -28.257812 11 -29.59375 C 13.894531 -30.925781 17.359375 -31.59375 21.390625 -31.59375 C 25.453125 -31.59375 28.921875 -30.925781 31.796875 -29.59375 C 34.671875 -28.257812 36.867188 -26.378906 38.390625 -23.953125 C 39.921875 -21.523438 40.6875 -18.640625 40.6875 -15.296875 C 40.6875 -11.941406 39.910156 -9.039062 38.359375 -6.59375 C 36.816406 -4.15625 34.609375 -2.265625 31.734375 -0.921875 C 28.859375 0.410156 25.410156 1.078125 21.390625 1.078125 C 17.398438 1.078125 13.957031 0.410156 11.0625 -0.921875 C 8.164062 -2.265625 5.9375 -4.15625 4.375 -6.59375 C 2.8125 -9.039062 2.03125 -11.941406 2.03125 -15.296875 Z M 12.296875 -15.234375 C 12.296875 -12.566406 13.125 -10.394531 14.78125 -8.71875 C 16.4375 -7.039062 18.640625 -6.203125 21.390625 -6.203125 C 24.097656 -6.203125 26.273438 -7.046875 27.921875 -8.734375 C 29.578125 -10.429688 30.40625 -12.617188 30.40625 -15.296875 C 30.40625 -17.960938 29.578125 -20.128906 27.921875 -21.796875 C 26.273438 -23.472656 24.097656 -24.3125 21.390625 -24.3125 C 18.640625 -24.3125 16.4375 -23.460938 14.78125 -21.765625 C 13.125 -20.078125 12.296875 -17.898438 12.296875 -15.234375 Z M 12.296875 -15.234375 "/></g></g></g><g fill="#ffffff" fill-opacity="1"><g transform="translate(106.788632, 42.251972)"><g><path d="M 13.3125 -30.53125 L 13.3125 -27.53125 C 14.519531 -28.769531 16.015625 -29.753906 17.796875 -30.484375 C 19.585938 -31.222656 21.707031 -31.59375 24.15625 -31.59375 C 27.570312 -31.59375 30.585938 -30.894531 33.203125 -29.5 C 35.816406 -28.113281 37.859375 -26.1875 39.328125 -23.71875 C 40.796875 -21.257812 41.53125 -18.453125 41.53125 -15.296875 C 41.53125 -12.097656 40.785156 -9.265625 39.296875 -6.796875 C 37.804688 -4.335938 35.742188 -2.410156 33.109375 -1.015625 C 30.484375 0.378906 27.441406 1.078125 23.984375 1.078125 C 21.722656 1.078125 19.707031 0.710938 17.9375 -0.015625 C 16.175781 -0.753906 14.632812 -1.800781 13.3125 -3.15625 L 13.3125 10.78125 L 3.84375 10.78125 L 3.84375 -30.53125 Z M 22.34375 -24.3125 C 19.59375 -24.3125 17.398438 -23.460938 15.765625 -21.765625 C 14.128906 -20.078125 13.3125 -17.898438 13.3125 -15.234375 C 13.3125 -12.597656 14.117188 -10.429688 15.734375 -8.734375 C 17.359375 -7.046875 19.539062 -6.203125 22.28125 -6.203125 C 25.03125 -6.203125 27.210938 -7.046875 28.828125 -8.734375 C 30.441406 -10.429688 31.25 -12.617188 31.25 -15.296875 C 31.25 -17.960938 30.441406 -20.128906 28.828125 -21.796875 C 27.210938 -23.472656 25.050781 -24.3125 22.34375 -24.3125 Z M 22.34375 -24.3125 "/></g></g></g><g fill="#ffffff" fill-opacity="1"><g transform="translate(147.687649, 42.251972)"><g><path d="M 38.3125 -9.9375 C 37.03125 -6.46875 34.851562 -3.765625 31.78125 -1.828125 C 28.71875 0.109375 24.929688 1.078125 20.421875 1.078125 C 16.660156 1.078125 13.394531 0.410156 10.625 -0.921875 C 7.863281 -2.265625 5.738281 -4.15625 4.25 -6.59375 C 2.769531 -9.039062 2.03125 -11.941406 2.03125 -15.296875 C 2.03125 -18.640625 2.765625 -21.523438 4.234375 -23.953125 C 5.703125 -26.378906 7.816406 -28.257812 10.578125 -29.59375 C 13.335938 -30.925781 16.617188 -31.59375 20.421875 -31.59375 C 26.328125 -31.59375 30.867188 -30.078125 34.046875 -27.046875 C 37.222656 -24.023438 38.8125 -19.710938 38.8125 -14.109375 L 38.8125 -12.8125 L 12.6875 -12.8125 C 12.6875 -10.59375 13.410156 -8.8125 14.859375 -7.46875 C 16.316406 -6.132812 18.171875 -5.46875 20.421875 -5.46875 C 22.234375 -5.46875 23.785156 -5.863281 25.078125 -6.65625 C 26.378906 -7.445312 27.3125 -8.539062 27.875 -9.9375 Z M 12.984375 -19.125 L 28.328125 -19.125 C 28.171875 -21.007812 27.40625 -22.503906 26.03125 -23.609375 C 24.664062 -24.722656 22.875 -25.28125 20.65625 -25.28125 C 18.46875 -25.28125 16.6875 -24.722656 15.3125 -23.609375 C 13.945312 -22.503906 13.171875 -21.007812 12.984375 -19.125 Z M 12.984375 -19.125 "/></g></g></g><g fill="#ffffff" fill-opacity="1"><g transform="translate(185.878845, 42.251972)"><g><path d="M 13.3125 -30.53125 L 13.3125 -26.515625 C 16.132812 -29.898438 19.21875 -31.59375 22.5625 -31.59375 C 22.90625 -31.59375 23.335938 -31.570312 23.859375 -31.53125 C 24.390625 -31.5 24.84375 -31.445312 25.21875 -31.375 L 25.21875 -23.359375 C 24.957031 -23.398438 24.523438 -23.425781 23.921875 -23.4375 C 23.316406 -23.457031 22.753906 -23.46875 22.234375 -23.46875 C 19.484375 -23.46875 17.304688 -22.601562 15.703125 -20.875 C 14.109375 -19.144531 13.3125 -16.738281 13.3125 -13.65625 L 13.3125 0 L 3.84375 0 L 3.84375 -30.53125 Z M 13.3125 -30.53125 "/></g></g></g><g fill="#ffffff" fill-opacity="1"><g transform="translate(209.00783, 42.251972)"><g><path d="M 6.265625 -38.65625 L 15.734375 -38.65625 L 15.734375 -30.53125 L 22.84375 -30.53125 L 22.84375 -23.25 L 15.734375 -23.25 L 15.734375 -10.4375 C 15.734375 -9.269531 15.78125 -8.375 15.875 -7.75 C 15.976562 -7.132812 16.253906 -6.722656 16.703125 -6.515625 C 17.148438 -6.304688 17.898438 -6.203125 18.953125 -6.203125 L 22.84375 -6.203125 L 22.84375 1.078125 L 16.421875 1.078125 C 12.960938 1.078125 10.40625 0.53125 8.75 -0.5625 C 7.09375 -1.65625 6.265625 -3.570312 6.265625 -6.3125 L 6.265625 -23.25 L 1.8125 -23.25 L 1.8125 -30.53125 L 6.265625 -30.53125 Z M 6.265625 -38.65625 "/></g></g></g><g fill="#ffffff" fill-opacity="1"><g transform="translate(230.218779, 42.251972)"><g><path d="M -0.5625 -30.53125 L 9.984375 -30.53125 L 18.171875 -10.890625 L 27.03125 -30.53125 L 37.46875 -30.53125 L 20.3125 4.453125 C 19.519531 6.109375 18.691406 7.394531 17.828125 8.3125 C 16.960938 9.238281 15.957031 9.878906 14.8125 10.234375 C 13.664062 10.597656 12.265625 10.78125 10.609375 10.78125 L 4.0625 10.78125 L 4.0625 3.5 L 9.640625 3.5 C 10.847656 3.5 11.734375 3.128906 12.296875 2.390625 C 12.859375 1.660156 13.140625 0.84375 13.140625 -0.0625 C 13.140625 -0.4375 13.101562 -0.828125 13.03125 -1.234375 C 12.957031 -1.648438 12.769531 -2.160156 12.46875 -2.765625 Z M -0.5625 -30.53125 "/></g></g></g><g fill="#ffffff" fill-opacity="1"><g transform="translate(264.461088, 42.251972)"><g><path d="M 4.5625 -40.96875 L 39.546875 -40.96875 L 39.546875 -32.5625 L 14.84375 -32.5625 L 14.84375 -24.828125 L 37.40625 -24.828125 L 37.40625 -16.421875 L 14.84375 -16.421875 L 14.84375 0 L 4.5625 0 Z M 4.5625 -40.96875 "/></g></g></g><g fill="#ffffff" fill-opacity="1"><g transform="translate(302.765128, 42.251972)"><g><path d="M 13.875 -30.53125 L 13.875 0 L 4.40625 0 L 4.40625 -30.53125 Z M 4.40625 -40.90625 L 13.875 -40.90625 L 13.875 -33.625 L 4.40625 -33.625 Z M 4.40625 -40.90625 "/></g></g></g><g fill="#ffffff" fill-opacity="1"><g transform="translate(318.391191, 42.251972)"><g><path d="M 13.875 -40.96875 L 13.875 0 L 4.40625 0 L 4.40625 -40.96875 Z M 13.875 -40.96875 "/></g></g></g><g fill="#ffffff" fill-opacity="1"><g transform="translate(334.017318, 42.251972)"><g><path d="M 38.3125 -9.9375 C 37.03125 -6.46875 34.851562 -3.765625 31.78125 -1.828125 C 28.71875 0.109375 24.929688 1.078125 20.421875 1.078125 C 16.660156 1.078125 13.394531 0.410156 10.625 -0.921875 C 7.863281 -2.265625 5.738281 -4.15625 4.25 -6.59375 C 2.769531 -9.039062 2.03125 -11.941406 2.03125 -15.296875 C 2.03125 -18.640625 2.765625 -21.523438 4.234375 -23.953125 C 5.703125 -26.378906 7.816406 -28.257812 10.578125 -29.59375 C 13.335938 -30.925781 16.617188 -31.59375 20.421875 -31.59375 C 26.328125 -31.59375 30.867188 -30.078125 34.046875 -27.046875 C 37.222656 -24.023438 38.8125 -19.710938 38.8125 -14.109375 L 38.8125 -12.8125 L 12.6875 -12.8125 C 12.6875 -10.59375 13.410156 -8.8125 14.859375 -7.46875 C 16.316406 -6.132812 18.171875 -5.46875 20.421875 -5.46875 C 22.234375 -5.46875 23.785156 -5.863281 25.078125 -6.65625 C 26.378906 -7.445312 27.3125 -8.539062 27.875 -9.9375 Z M 12.984375 -19.125 L 28.328125 -19.125 C 28.171875 -21.007812 27.40625 -22.503906 26.03125 -23.609375 C 24.664062 -24.722656 22.875 -25.28125 20.65625 -25.28125 C 18.46875 -25.28125 16.6875 -24.722656 15.3125 -23.609375 C 13.945312 -22.503906 13.171875 -21.007812 12.984375 -19.125 Z M 12.984375 -19.125 "/></g></g></g></g></g></svg>