<svg xmlns="http://www.w3.org/2000/svg" xmlns:xlink="http://www.w3.org/1999/xlink" zoomAndPan="magnify" preserveAspectRatio="xMidYMid meet" version="1.0" viewBox="4.38 163.98 368.55 49.59"><defs><g/></defs><g fill="#ffffff" fill-opacity="1"><g transform="translate(0.0000045, 203.249987)"><g><path d="M 4.375 0 L 4.375 -39.265625 L 27.640625 -39.265625 C 32.253906 -39.265625 35.8125 -38.070312 38.3125 -35.6875 C 40.820312 -33.3125 42.078125 -30.050781 42.078125 -25.90625 C 42.078125 -21.757812 40.820312 -18.457031 38.3125 -16 C 35.8125 -13.550781 32.253906 -12.328125 27.640625 -12.328125 L 14.21875 -12.328125 L 14.21875 0 Z M 14.21875 -31.203125 L 14.21875 -20.390625 L 23.25 -20.390625 C 26.3125 -20.390625 28.570312 -20.738281 30.03125 -21.4375 C 31.5 -22.144531 32.234375 -23.578125 32.234375 -25.734375 C 32.234375 -27.972656 31.570312 -29.441406 30.25 -30.140625 C 28.9375 -30.847656 26.820312 -31.203125 23.90625 -31.203125 Z M 14.21875 -31.203125 "/></g></g></g><g fill="#ffffff" fill-opacity="1"><g transform="translate(41.795828, 203.249987)"><g><path d="M 4.375 -39.265625 L 37.90625 -39.265625 L 37.90625 -31.203125 L 14.21875 -31.203125 L 14.21875 -23.796875 L 35.859375 -23.796875 L 35.859375 -15.734375 L 14.21875 -15.734375 L 14.21875 0 L 4.375 0 Z M 4.375 -39.265625 "/></g></g></g><g fill="#00bf63" fill-opacity="1"><g transform="translate(78.515624, 203.249987)"><g><path d="M 4.375 -39.265625 L 17.09375 -39.265625 L 29.75 -11.140625 L 42.71875 -39.265625 L 55.328125 -39.265625 L 55.328125 0 L 45.859375 0 L 45.859375 -26.234375 L 33.6875 0 L 25.53125 0 L 13.84375 -26.65625 L 13.84375 0 L 4.375 0 Z M 4.375 -39.265625 "/></g></g></g><g fill="#00bf63" fill-opacity="1"><g transform="translate(135.667415, 203.249987)"><g><path d="M 14.5 -19.578125 L 5.078125 -19.578125 C 5.078125 -23.035156 6.484375 -25.679688 9.296875 -27.515625 C 12.109375 -29.359375 16.238281 -30.28125 21.6875 -30.28125 C 23.664062 -30.28125 25.554688 -30.132812 27.359375 -29.84375 C 29.160156 -29.5625 30.773438 -29.019531 32.203125 -28.21875 C 33.628906 -27.425781 34.742188 -26.3125 35.546875 -24.875 C 36.359375 -23.4375 36.765625 -21.5625 36.765625 -19.25 L 36.765625 -4.703125 C 36.765625 -3.691406 36.851562 -2.863281 37.03125 -2.21875 C 37.21875 -1.570312 37.582031 -1.050781 38.125 -0.65625 L 38.125 0 L 28.125 0 L 27.6875 -3.1875 C 26.03125 -1.707031 24.207031 -0.632812 22.21875 0.03125 C 20.238281 0.695312 17.988281 1.03125 15.46875 1.03125 C 11.320312 1.03125 8.113281 0.140625 5.84375 -1.640625 C 3.570312 -3.429688 2.4375 -5.769531 2.4375 -8.65625 C 2.4375 -11.675781 3.585938 -13.828125 5.890625 -15.109375 C 8.203125 -16.390625 11.679688 -17.210938 16.328125 -17.578125 C 18.847656 -17.796875 20.960938 -17.96875 22.671875 -18.09375 C 24.390625 -18.21875 25.691406 -18.492188 26.578125 -18.921875 C 27.460938 -19.359375 27.90625 -20.117188 27.90625 -21.203125 C 27.90625 -23.398438 25.648438 -24.5 21.140625 -24.5 C 18.941406 -24.5 17.285156 -24.109375 16.171875 -23.328125 C 15.054688 -22.554688 14.5 -21.304688 14.5 -19.578125 Z M 27.90625 -14.109375 C 26.96875 -13.609375 25.875 -13.273438 24.625 -13.109375 C 23.382812 -12.953125 22.007812 -12.78125 20.5 -12.59375 C 17.9375 -12.34375 15.988281 -12.007812 14.65625 -11.59375 C 13.320312 -11.1875 12.65625 -10.28125 12.65625 -8.875 C 12.65625 -7.75 13.09375 -6.84375 13.96875 -6.15625 C 14.851562 -5.476562 16.054688 -5.140625 17.578125 -5.140625 C 20.671875 -5.140625 23.164062 -5.882812 25.0625 -7.375 C 26.957031 -8.875 27.90625 -10.78125 27.90625 -13.09375 Z M 27.90625 -14.109375 "/></g></g></g><g fill="#00bf63" fill-opacity="1"><g transform="translate(173.678323, 203.249987)"><g><path d="M 28.984375 -29.25 L 38.078125 -29.25 L 38.078125 -2.921875 C 38.078125 1.617188 36.46875 4.960938 33.25 7.109375 C 30.039062 9.253906 25.660156 10.328125 20.109375 10.328125 C 14.960938 10.328125 11.082031 9.5 8.46875 7.84375 C 5.851562 6.1875 4.546875 3.625 4.546875 0.15625 L 13.578125 0.15625 C 13.578125 2.613281 15.773438 3.84375 20.171875 3.84375 C 23.410156 3.84375 25.6875 3.363281 27 2.40625 C 28.320312 1.445312 28.984375 -0.289062 28.984375 -2.8125 L 28.984375 -4.8125 C 27.753906 -3.582031 26.289062 -2.679688 24.59375 -2.109375 C 22.90625 -1.535156 20.976562 -1.25 18.8125 -1.25 C 15.46875 -1.25 12.523438 -1.847656 9.984375 -3.046875 C 7.441406 -4.253906 5.46875 -5.945312 4.0625 -8.125 C 2.65625 -10.3125 1.953125 -12.832031 1.953125 -15.6875 C 1.953125 -18.5 2.65625 -21.003906 4.0625 -23.203125 C 5.46875 -25.398438 7.421875 -27.128906 9.921875 -28.390625 C 12.429688 -29.648438 15.34375 -30.28125 18.65625 -30.28125 C 23.019531 -30.28125 26.460938 -29.070312 28.984375 -26.65625 Z M 28.984375 -15.6875 C 28.984375 -18.03125 28.21875 -19.945312 26.6875 -21.4375 C 25.15625 -22.9375 23.054688 -23.6875 20.390625 -23.6875 C 17.753906 -23.6875 15.660156 -22.945312 14.109375 -21.46875 C 12.554688 -19.988281 11.78125 -18.0625 11.78125 -15.6875 C 11.78125 -13.269531 12.554688 -11.359375 14.109375 -9.953125 C 15.660156 -8.546875 17.753906 -7.84375 20.390625 -7.84375 C 23.054688 -7.84375 25.15625 -8.550781 26.6875 -9.96875 C 28.21875 -11.394531 28.984375 -13.300781 28.984375 -15.6875 Z M 28.984375 -15.6875 "/></g></g></g><g fill="#00bf63" fill-opacity="1"><g transform="translate(212.878775, 203.249987)"><g><path d="M 14.5 -19.578125 L 5.078125 -19.578125 C 5.078125 -23.035156 6.484375 -25.679688 9.296875 -27.515625 C 12.109375 -29.359375 16.238281 -30.28125 21.6875 -30.28125 C 23.664062 -30.28125 25.554688 -30.132812 27.359375 -29.84375 C 29.160156 -29.5625 30.773438 -29.019531 32.203125 -28.21875 C 33.628906 -27.425781 34.742188 -26.3125 35.546875 -24.875 C 36.359375 -23.4375 36.765625 -21.5625 36.765625 -19.25 L 36.765625 -4.703125 C 36.765625 -3.691406 36.851562 -2.863281 37.03125 -2.21875 C 37.21875 -1.570312 37.582031 -1.050781 38.125 -0.65625 L 38.125 0 L 28.125 0 L 27.6875 -3.1875 C 26.03125 -1.707031 24.207031 -0.632812 22.21875 0.03125 C 20.238281 0.695312 17.988281 1.03125 15.46875 1.03125 C 11.320312 1.03125 8.113281 0.140625 5.84375 -1.640625 C 3.570312 -3.429688 2.4375 -5.769531 2.4375 -8.65625 C 2.4375 -11.675781 3.585938 -13.828125 5.890625 -15.109375 C 8.203125 -16.390625 11.679688 -17.210938 16.328125 -17.578125 C 18.847656 -17.796875 20.960938 -17.96875 22.671875 -18.09375 C 24.390625 -18.21875 25.691406 -18.492188 26.578125 -18.921875 C 27.460938 -19.359375 27.90625 -20.117188 27.90625 -21.203125 C 27.90625 -23.398438 25.648438 -24.5 21.140625 -24.5 C 18.941406 -24.5 17.285156 -24.109375 16.171875 -23.328125 C 15.054688 -22.554688 14.5 -21.304688 14.5 -19.578125 Z M 27.90625 -14.109375 C 26.96875 -13.609375 25.875 -13.273438 24.625 -13.109375 C 23.382812 -12.953125 22.007812 -12.78125 20.5 -12.59375 C 17.9375 -12.34375 15.988281 -12.007812 14.65625 -11.59375 C 13.320312 -11.1875 12.65625 -10.28125 12.65625 -8.875 C 12.65625 -7.75 13.09375 -6.84375 13.96875 -6.15625 C 14.851562 -5.476562 16.054688 -5.140625 17.578125 -5.140625 C 20.671875 -5.140625 23.164062 -5.882812 25.0625 -7.375 C 26.957031 -8.875 27.90625 -10.78125 27.90625 -13.09375 Z M 27.90625 -14.109375 "/></g></g></g><g fill="#00bf63" fill-opacity="1"><g transform="translate(250.889682, 203.249987)"><g><path d="M 3.03125 -29.25 L 32.234375 -29.25 L 32.234375 -22.28125 L 13.578125 -6.96875 L 32.828125 -6.96875 L 32.828125 0 L 1.734375 0 L 1.734375 -7.03125 L 20.0625 -22.28125 L 3.03125 -22.28125 Z M 3.03125 -29.25 "/></g></g></g><g fill="#00bf63" fill-opacity="1"><g transform="translate(282.898781, 203.249987)"><g><path d="M 13.296875 -29.25 L 13.296875 0 L 4.21875 0 L 4.21875 -29.25 Z M 4.21875 -39.203125 L 13.296875 -39.203125 L 13.296875 -32.234375 L 4.21875 -32.234375 Z M 4.21875 -39.203125 "/></g></g></g><g fill="#00bf63" fill-opacity="1"><g transform="translate(297.875732, 203.249987)"><g><path d="M 12.765625 -29.25 L 12.765625 -25.140625 C 15.929688 -28.566406 19.734375 -30.28125 24.171875 -30.28125 C 27.453125 -30.28125 29.992188 -29.726562 31.796875 -28.625 C 33.597656 -27.53125 34.867188 -25.953125 35.609375 -23.890625 C 36.347656 -21.835938 36.71875 -19.351562 36.71875 -16.4375 L 36.71875 0 L 27.640625 0 L 27.640625 -14.765625 C 27.640625 -17.722656 27.222656 -19.882812 26.390625 -21.25 C 25.554688 -22.625 23.84375 -23.3125 21.25 -23.3125 C 18.65625 -23.3125 16.59375 -22.585938 15.0625 -21.140625 C 13.53125 -19.703125 12.765625 -17.6875 12.765625 -15.09375 L 12.765625 0 L 3.671875 0 L 3.671875 -29.25 Z M 12.765625 -29.25 "/></g></g></g><g fill="#00bf63" fill-opacity="1"><g transform="translate(335.724454, 203.249987)"><g><path d="M 36.71875 -9.515625 C 35.488281 -6.203125 33.40625 -3.613281 30.46875 -1.75 C 27.53125 0.101562 23.898438 1.03125 19.578125 1.03125 C 15.972656 1.03125 12.84375 0.390625 10.1875 -0.890625 C 7.539062 -2.171875 5.503906 -3.984375 4.078125 -6.328125 C 2.660156 -8.671875 1.953125 -11.445312 1.953125 -14.65625 C 1.953125 -17.863281 2.65625 -20.628906 4.0625 -22.953125 C 5.46875 -25.273438 7.492188 -27.078125 10.140625 -28.359375 C 12.785156 -29.640625 15.929688 -30.28125 19.578125 -30.28125 C 25.234375 -30.28125 29.582031 -28.828125 32.625 -25.921875 C 35.675781 -23.023438 37.203125 -18.890625 37.203125 -13.515625 L 37.203125 -12.28125 L 12.171875 -12.28125 C 12.171875 -10.144531 12.863281 -8.4375 14.25 -7.15625 C 15.632812 -5.882812 17.410156 -5.25 19.578125 -5.25 C 21.304688 -5.25 22.789062 -5.625 24.03125 -6.375 C 25.28125 -7.132812 26.175781 -8.179688 26.71875 -9.515625 Z M 12.4375 -18.328125 L 27.140625 -18.328125 C 27.003906 -20.128906 26.273438 -21.5625 24.953125 -22.625 C 23.640625 -23.695312 21.921875 -24.234375 19.796875 -24.234375 C 17.703125 -24.234375 15.992188 -23.695312 14.671875 -22.625 C 13.359375 -21.5625 12.613281 -20.128906 12.4375 -18.328125 Z M 12.4375 -18.328125 "/></g></g></g></svg>