<svg xmlns="http://www.w3.org/2000/svg" xmlns:xlink="http://www.w3.org/1999/xlink" zoomAndPan="magnify" preserveAspectRatio="xMidYMid meet" version="1.0" viewBox="6.02 171.71 364.35 51.17"><defs><g/><clipPath id="c6b18d6cc6"><path d="M 5 0.359375 L 44 0.359375 L 44 42 L 5 42 Z M 5 0.359375 " clip-rule="nonzero"/></clipPath><clipPath id="a6d7ea3a73"><path d="M 266 0.359375 L 302 0.359375 L 302 42 L 266 42 Z M 266 0.359375 " clip-rule="nonzero"/></clipPath><clipPath id="8e2e1dcc2d"><path d="M 304 0.359375 L 314 0.359375 L 314 42 L 304 42 Z M 304 0.359375 " clip-rule="nonzero"/></clipPath><clipPath id="46e4ec8785"><path d="M 319 0.359375 L 330 0.359375 L 330 42 L 319 42 Z M 319 0.359375 " clip-rule="nonzero"/></clipPath><clipPath id="0f775cd632"><rect x="0" width="371" y="0" height="53"/></clipPath></defs><g transform="matrix(1, 0, 0, 1, 1, 171)"><g clip-path="url(#0f775cd632)"><g clip-path="url(#c6b18d6cc6)"><g fill="#000000" fill-opacity="1"><g transform="translate(0.500004, 41.221436)"><g><path d="M 4.515625 0 L 4.515625 -40.515625 L 28.515625 -40.515625 C 33.285156 -40.515625 36.960938 -39.285156 39.546875 -36.828125 C 42.128906 -34.378906 43.421875 -31.015625 43.421875 -26.734375 C 43.421875 -22.453125 42.128906 -19.046875 39.546875 -16.515625 C 36.960938 -13.984375 33.285156 -12.71875 28.515625 -12.71875 L 14.671875 -12.71875 L 14.671875 0 Z M 14.671875 -32.203125 L 14.671875 -21.046875 L 24 -21.046875 C 27.164062 -21.046875 29.5 -21.40625 31 -22.125 C 32.507812 -22.851562 33.265625 -24.332031 33.265625 -26.5625 C 33.265625 -28.875 32.582031 -30.390625 31.21875 -31.109375 C 29.863281 -31.835938 27.679688 -32.203125 24.671875 -32.203125 Z M 14.671875 -32.203125 "/></g></g></g></g><g fill="#000000" fill-opacity="1"><g transform="translate(43.642179, 41.221436)"><g><path d="M 13.171875 -30.1875 L 13.171875 -26.234375 C 15.960938 -29.578125 19.015625 -31.25 22.328125 -31.25 C 22.660156 -31.25 23.085938 -31.226562 23.609375 -31.1875 C 24.128906 -31.15625 24.578125 -31.101562 24.953125 -31.03125 L 24.953125 -23.109375 C 24.691406 -23.140625 24.257812 -23.164062 23.65625 -23.1875 C 23.0625 -23.207031 22.503906 -23.21875 21.984375 -23.21875 C 19.273438 -23.21875 17.128906 -22.359375 15.546875 -20.640625 C 13.960938 -18.929688 13.171875 -16.550781 13.171875 -13.5 L 13.171875 0 L 3.796875 0 L 3.796875 -30.1875 Z M 13.171875 -30.1875 "/></g></g></g><g fill="#000000" fill-opacity="1"><g transform="translate(66.524716, 41.221436)"><g><path d="M 2.015625 -15.125 C 2.015625 -18.4375 2.773438 -21.289062 4.296875 -23.6875 C 5.816406 -26.09375 8.007812 -27.953125 10.875 -29.265625 C 13.75 -30.585938 17.175781 -31.25 21.15625 -31.25 C 25.175781 -31.25 28.609375 -30.585938 31.453125 -29.265625 C 34.296875 -27.953125 36.46875 -26.09375 37.96875 -23.6875 C 39.476562 -21.289062 40.234375 -18.4375 40.234375 -15.125 C 40.234375 -11.8125 39.472656 -8.945312 37.953125 -6.53125 C 36.429688 -4.113281 34.242188 -2.242188 31.390625 -0.921875 C 28.546875 0.398438 25.132812 1.0625 21.15625 1.0625 C 17.207031 1.0625 13.800781 0.398438 10.9375 -0.921875 C 8.070312 -2.242188 5.867188 -4.113281 4.328125 -6.53125 C 2.785156 -8.945312 2.015625 -11.8125 2.015625 -15.125 Z M 12.171875 -15.0625 C 12.171875 -12.425781 12.988281 -10.28125 14.625 -8.625 C 16.257812 -6.96875 18.4375 -6.140625 21.15625 -6.140625 C 23.832031 -6.140625 25.988281 -6.972656 27.625 -8.640625 C 29.257812 -10.316406 30.078125 -12.476562 30.078125 -15.125 C 30.078125 -17.769531 29.257812 -19.921875 27.625 -21.578125 C 25.988281 -23.234375 23.832031 -24.0625 21.15625 -24.0625 C 18.4375 -24.0625 16.257812 -23.222656 14.625 -21.546875 C 12.988281 -19.867188 12.171875 -17.707031 12.171875 -15.0625 Z M 12.171875 -15.0625 "/></g></g></g><g fill="#000000" fill-opacity="1"><g transform="translate(106.150757, 41.221436)"><g><path d="M 13.171875 -30.1875 L 13.171875 -27.234375 C 14.359375 -28.460938 15.835938 -29.4375 17.609375 -30.15625 C 19.378906 -30.882812 21.472656 -31.25 23.890625 -31.25 C 27.273438 -31.25 30.257812 -30.5625 32.84375 -29.1875 C 35.425781 -27.8125 37.441406 -25.90625 38.890625 -23.46875 C 40.347656 -21.03125 41.078125 -18.25 41.078125 -15.125 C 41.078125 -11.957031 40.34375 -9.15625 38.875 -6.71875 C 37.40625 -4.28125 35.367188 -2.375 32.765625 -1 C 30.160156 0.375 27.144531 1.0625 23.71875 1.0625 C 21.488281 1.0625 19.5 0.703125 17.75 -0.015625 C 16 -0.742188 14.472656 -1.78125 13.171875 -3.125 L 13.171875 10.65625 L 3.796875 10.65625 L 3.796875 -30.1875 Z M 22.109375 -24.0625 C 19.390625 -24.0625 17.21875 -23.222656 15.59375 -21.546875 C 13.976562 -19.867188 13.171875 -17.707031 13.171875 -15.0625 C 13.171875 -12.457031 13.96875 -10.316406 15.5625 -8.640625 C 17.164062 -6.972656 19.328125 -6.140625 22.046875 -6.140625 C 24.765625 -6.140625 26.921875 -6.972656 28.515625 -8.640625 C 30.117188 -10.316406 30.921875 -12.476562 30.921875 -15.125 C 30.921875 -17.769531 30.117188 -19.921875 28.515625 -21.578125 C 26.921875 -23.234375 24.785156 -24.0625 22.109375 -24.0625 Z M 22.109375 -24.0625 "/></g></g></g><g fill="#000000" fill-opacity="1"><g transform="translate(146.61398, 41.221436)"><g><path d="M 37.890625 -9.828125 C 36.628906 -6.398438 34.484375 -3.726562 31.453125 -1.8125 C 28.421875 0.101562 24.671875 1.0625 20.203125 1.0625 C 16.484375 1.0625 13.253906 0.398438 10.515625 -0.921875 C 7.785156 -2.242188 5.6875 -4.113281 4.21875 -6.53125 C 2.75 -8.945312 2.015625 -11.8125 2.015625 -15.125 C 2.015625 -18.4375 2.738281 -21.289062 4.1875 -23.6875 C 5.632812 -26.09375 7.722656 -27.953125 10.453125 -29.265625 C 13.191406 -30.585938 16.441406 -31.25 20.203125 -31.25 C 26.046875 -31.25 30.539062 -29.75 33.6875 -26.75 C 36.832031 -23.757812 38.40625 -19.492188 38.40625 -13.953125 L 38.40625 -12.671875 L 12.5625 -12.671875 C 12.5625 -10.472656 13.273438 -8.710938 14.703125 -7.390625 C 16.140625 -6.066406 17.972656 -5.40625 20.203125 -5.40625 C 21.992188 -5.40625 23.53125 -5.796875 24.8125 -6.578125 C 26.09375 -7.367188 27.015625 -8.453125 27.578125 -9.828125 Z M 12.84375 -18.921875 L 28.015625 -18.921875 C 27.867188 -20.785156 27.113281 -22.265625 25.75 -23.359375 C 24.394531 -24.453125 22.617188 -25 20.421875 -25 C 18.265625 -25 16.503906 -24.453125 15.140625 -23.359375 C 13.785156 -22.265625 13.019531 -20.785156 12.84375 -18.921875 Z M 12.84375 -18.921875 "/></g></g></g><g fill="#000000" fill-opacity="1"><g transform="translate(184.398234, 41.221436)"><g><path d="M 13.171875 -30.1875 L 13.171875 -26.234375 C 15.960938 -29.578125 19.015625 -31.25 22.328125 -31.25 C 22.660156 -31.25 23.085938 -31.226562 23.609375 -31.1875 C 24.128906 -31.15625 24.578125 -31.101562 24.953125 -31.03125 L 24.953125 -23.109375 C 24.691406 -23.140625 24.257812 -23.164062 23.65625 -23.1875 C 23.0625 -23.207031 22.503906 -23.21875 21.984375 -23.21875 C 19.273438 -23.21875 17.128906 -22.359375 15.546875 -20.640625 C 13.960938 -18.929688 13.171875 -16.550781 13.171875 -13.5 L 13.171875 0 L 3.796875 0 L 3.796875 -30.1875 Z M 13.171875 -30.1875 "/></g></g></g><g fill="#000000" fill-opacity="1"><g transform="translate(207.280771, 41.221436)"><g><path d="M 6.1875 -38.234375 L 15.578125 -38.234375 L 15.578125 -30.1875 L 22.609375 -30.1875 L 22.609375 -23 L 15.578125 -23 L 15.578125 -10.328125 C 15.578125 -9.171875 15.617188 -8.285156 15.703125 -7.671875 C 15.796875 -7.054688 16.066406 -6.644531 16.515625 -6.4375 C 16.960938 -6.238281 17.707031 -6.140625 18.75 -6.140625 L 22.609375 -6.140625 L 22.609375 1.0625 L 16.234375 1.0625 C 12.816406 1.0625 10.285156 0.523438 8.640625 -0.546875 C 7.003906 -1.628906 6.1875 -3.53125 6.1875 -6.25 L 6.1875 -23 L 1.78125 -23 L 1.78125 -30.1875 L 6.1875 -30.1875 Z M 6.1875 -38.234375 "/></g></g></g><g fill="#000000" fill-opacity="1"><g transform="translate(228.265708, 41.221436)"><g><path d="M -0.5625 -30.1875 L 9.875 -30.1875 L 17.96875 -10.765625 L 26.734375 -30.1875 L 37.0625 -30.1875 L 20.09375 4.40625 C 19.3125 6.039062 18.492188 7.3125 17.640625 8.21875 C 16.785156 9.132812 15.789062 9.769531 14.65625 10.125 C 13.519531 10.476562 12.132812 10.65625 10.5 10.65625 L 4.015625 10.65625 L 4.015625 3.453125 L 9.546875 3.453125 C 10.734375 3.453125 11.601562 3.085938 12.15625 2.359375 C 12.71875 1.640625 13 0.832031 13 -0.0625 C 13 -0.425781 12.960938 -0.8125 12.890625 -1.21875 C 12.816406 -1.632812 12.628906 -2.140625 12.328125 -2.734375 Z M -0.5625 -30.1875 "/></g></g></g><g clip-path="url(#a6d7ea3a73)"><g fill="#000000" fill-opacity="1"><g transform="translate(262.143152, 41.221436)"><g><path d="M 4.515625 -40.515625 L 39.125 -40.515625 L 39.125 -32.203125 L 14.671875 -32.203125 L 14.671875 -24.5625 L 37 -24.5625 L 37 -16.234375 L 14.671875 -16.234375 L 14.671875 0 L 4.515625 0 Z M 4.515625 -40.515625 "/></g></g></g></g><g clip-path="url(#8e2e1dcc2d)"><g fill="#000000" fill-opacity="1"><g transform="translate(300.039048, 41.221436)"><g><path d="M 13.734375 -30.1875 L 13.734375 0 L 4.359375 0 L 4.359375 -30.1875 Z M 4.359375 -40.46875 L 13.734375 -40.46875 L 13.734375 -33.265625 L 4.359375 -33.265625 Z M 4.359375 -40.46875 "/></g></g></g></g><g clip-path="url(#46e4ec8785)"><g fill="#000000" fill-opacity="1"><g transform="translate(315.498609, 41.221436)"><g><path d="M 13.734375 -40.515625 L 13.734375 0 L 4.359375 0 L 4.359375 -40.515625 Z M 13.734375 -40.515625 "/></g></g></g></g><g fill="#000000" fill-opacity="1"><g transform="translate(330.958234, 41.221436)"><g><path d="M 37.890625 -9.828125 C 36.628906 -6.398438 34.484375 -3.726562 31.453125 -1.8125 C 28.421875 0.101562 24.671875 1.0625 20.203125 1.0625 C 16.484375 1.0625 13.253906 0.398438 10.515625 -0.921875 C 7.785156 -2.242188 5.6875 -4.113281 4.21875 -6.53125 C 2.75 -8.945312 2.015625 -11.8125 2.015625 -15.125 C 2.015625 -18.4375 2.738281 -21.289062 4.1875 -23.6875 C 5.632812 -26.09375 7.722656 -27.953125 10.453125 -29.265625 C 13.191406 -30.585938 16.441406 -31.25 20.203125 -31.25 C 26.046875 -31.25 30.539062 -29.75 33.6875 -26.75 C 36.832031 -23.757812 38.40625 -19.492188 38.40625 -13.953125 L 38.40625 -12.671875 L 12.5625 -12.671875 C 12.5625 -10.472656 13.273438 -8.710938 14.703125 -7.390625 C 16.140625 -6.066406 17.972656 -5.40625 20.203125 -5.40625 C 21.992188 -5.40625 23.53125 -5.796875 24.8125 -6.578125 C 26.09375 -7.367188 27.015625 -8.453125 27.578125 -9.828125 Z M 12.84375 -18.921875 L 28.015625 -18.921875 C 27.867188 -20.785156 27.113281 -22.265625 25.75 -23.359375 C 24.394531 -24.453125 22.617188 -25 20.421875 -25 C 18.265625 -25 16.503906 -24.453125 15.140625 -23.359375 C 13.785156 -22.265625 13.019531 -20.785156 12.84375 -18.921875 Z M 12.84375 -18.921875 "/></g></g></g></g></g></svg>