<svg version="1.0" preserveAspectRatio="xMidYMid meet" viewBox="104.10000000000001 130.19999687520001 161.25 113.24999728200001" zoomAndPan="magnify" xmlns:xlink="http://www.w3.org/1999/xlink" xmlns="http://www.w3.org/2000/svg" style="max-height: 500px" width="161.25" height="113.24999728200001"><defs><g/><clipPath id="71befdab52"><path clip-rule="nonzero" d="M 107.289062 132.050781 L 261.039062 132.050781 L 261.039062 237.800781 L 107.289062 237.800781 Z M 107.289062 132.050781"/></clipPath></defs><g clip-path="url(#71befdab52)"><path fill-rule="nonzero" fill-opacity="1" d="M 438.292969 232.027344 C 439.941406 232.027344 441.277344 233.363281 441.277344 235.011719 C 441.277344 236.65625 439.941406 237.992188 438.292969 237.992188 L 132.03125 237.992188 C 129.085938 237.992188 126.402344 236.789062 124.460938 234.847656 C 122.523438 232.90625 121.316406 230.226562 121.316406 227.277344 L 121.316406 189.601562 L 116.003906 189.601562 C 113.925781 189.601562 112.21875 189.054688 110.882812 188.152344 C 109.40625 187.15625 108.429688 185.742188 107.9375 184.140625 L 107.933594 184.140625 C 107.476562 182.652344 107.464844 181.011719 107.875 179.421875 C 108.359375 177.519531 109.457031 175.667969 111.121094 174.234375 L 156.78125 134.871094 C 158.96875 132.988281 161.800781 132.050781 164.605469 132.050781 C 167.410156 132.050781 170.242188 132.988281 172.425781 134.871094 L 203.113281 161.414062 C 204.355469 162.488281 204.492188 164.367188 203.417969 165.609375 C 202.34375 166.851562 200.464844 166.988281 199.222656 165.914062 L 168.539062 139.371094 C 167.488281 138.46875 166.0625 138.015625 164.605469 138.015625 C 163.152344 138.015625 161.722656 138.46875 160.671875 139.371094 L 115.011719 178.734375 C 114.292969 179.351562 113.824219 180.121094 113.628906 180.886719 C 113.492188 181.425781 113.488281 181.949219 113.621094 182.394531 L 113.617188 182.394531 L 113.621094 182.40625 C 113.71875 182.722656 113.917969 183.011719 114.214844 183.210938 C 114.605469 183.476562 115.195312 183.632812 116.003906 183.632812 L 124.300781 183.632812 C 125.945312 183.632812 127.28125 184.96875 127.28125 186.617188 L 127.28125 227.277344 C 127.28125 228.582031 127.816406 229.769531 128.679688 230.632812 C 129.539062 231.492188 130.730469 232.027344 132.03125 232.027344 Z M 438.292969 232.027344" fill="#ccff02"/></g><g fill-opacity="1" fill="#ffffff"><g transform="translate(165.862611, 220.615186)"><g><path d="M 5.171875 0 L 5.171875 -46.328125 L 32.609375 -46.328125 C 38.054688 -46.328125 42.253906 -44.921875 45.203125 -42.109375 C 48.160156 -39.304688 49.640625 -35.457031 49.640625 -30.5625 C 49.640625 -25.675781 48.160156 -21.785156 45.203125 -18.890625 C 42.253906 -15.992188 38.054688 -14.546875 32.609375 -14.546875 L 16.78125 -14.546875 L 16.78125 0 Z M 16.78125 -36.8125 L 16.78125 -24.0625 L 27.4375 -24.0625 C 31.050781 -24.0625 33.71875 -24.472656 35.4375 -25.296875 C 37.164062 -26.128906 38.03125 -27.820312 38.03125 -30.375 C 38.03125 -33.007812 37.253906 -34.738281 35.703125 -35.5625 C 34.148438 -36.394531 31.648438 -36.8125 28.203125 -36.8125 Z M 16.78125 -36.8125"/></g></g></g><g fill-opacity="1" fill="#ffffff"><g transform="translate(215.187389, 220.615186)"><g><path d="M 5.171875 -46.328125 L 44.734375 -46.328125 L 44.734375 -36.8125 L 16.78125 -36.8125 L 16.78125 -28.078125 L 42.3125 -28.078125 L 42.3125 -18.5625 L 16.78125 -18.5625 L 16.78125 0 L 5.171875 0 Z M 5.171875 -46.328125"/></g></g></g></svg>